<svg width="31" height="33" viewBox="0 0 31 33" fill="none" xmlns="http://www.w3.org/2000/svg">
<path d="M15.5 2.0625C16.7846 2.0625 18.0167 2.60575 18.925 3.57273C19.8334 4.53972 20.3438 5.85123 20.3438 7.21875V8.25H10.6562V7.21875C10.6563 5.85123 11.1666 4.53972 12.075 3.57273C12.9833 2.60575 14.2154 2.0625 15.5 2.0625ZM22.2812 8.25V7.21875C22.2812 5.30422 21.5668 3.4681 20.2951 2.11432C19.0233 0.760545 17.2985 0 15.5 0C13.7015 0 11.9767 0.760545 10.7049 2.11432C9.4332 3.4681 8.71875 5.30422 8.71875 7.21875V8.25H1.9375V28.875C1.9375 29.969 2.34576 31.0182 3.07246 31.7918C3.79916 32.5654 4.78479 33 5.8125 33H25.1875C26.2152 33 27.2008 32.5654 27.9275 31.7918C28.6542 31.0182 29.0625 29.969 29.0625 28.875V8.25H22.2812ZM3.875 10.3125H27.125V28.875C27.125 29.422 26.9209 29.9466 26.5575 30.3334C26.1942 30.7202 25.7014 30.9375 25.1875 30.9375H5.8125C5.29864 30.9375 4.80583 30.7202 4.44248 30.3334C4.07913 29.9466 3.875 29.422 3.875 28.875V10.3125Z" fill="#2F5D50"/>
</svg>
